<svg width="55" height="70" viewBox="0 0 55 70" fill="none" xmlns="http://www.w3.org/2000/svg">
<path d="M44.0119 23.8745C44.0127 24.7063 43.7943 25.5237 43.3788 26.2442C42.9632 26.9648 42.3651 27.5632 41.6447 27.9791L30.519 34.3705C29.8013 34.7829 28.9879 35 28.1601 35C27.3323 35 26.519 34.7829 25.8012 34.3705L14.6755 27.9791C13.9551 27.5632 13.357 26.9648 12.9415 26.2442C12.5259 25.5237 12.3075 24.7063 12.3084 23.8745V11.1249C12.3075 10.293 12.5259 9.47567 12.9415 8.75508C13.357 8.03449 13.9551 7.43611 14.6755 7.02019L25.8012 0.628829C26.5187 0.216811 27.3316 0 28.1589 0C28.9863 0 29.7992 0.216811 30.5166 0.628829L41.6423 7.02019C42.3627 7.43611 42.9608 8.03449 43.3764 8.75508C43.792 9.47567 44.0103 10.293 44.0095 11.1249L44.0119 23.8745Z" fill="#1D86CC"/>
<path d="M26.7848 2.40558L15.8011 8.75197C15.3851 8.99187 15.0393 9.33675 14.7984 9.75216C14.5575 10.1676 14.4298 10.6389 14.4281 11.1191V23.8214C14.4298 24.3013 14.5572 24.7724 14.7977 25.1878C15.0382 25.6031 15.3833 25.9482 15.7987 26.1886L26.7966 32.5444C27.2137 32.7863 27.6873 32.9138 28.1696 32.9138C28.6518 32.9138 29.1254 32.7863 29.5425 32.5444L40.5262 26.2028C40.942 25.9627 41.2876 25.6177 41.5286 25.2024C41.7695 24.787 41.8972 24.3157 41.8991 23.8356V11.1333C41.8972 10.6532 41.7695 10.1819 41.5286 9.76654C41.2876 9.35118 40.942 9.00625 40.5262 8.76617L29.5307 2.40795C29.1132 2.16718 28.6397 2.04043 28.1577 2.04043C27.6758 2.04043 27.2023 2.16718 26.7848 2.40795V2.40558Z" fill="white"/>
<path d="M23.1587 28.2716C23.1744 28.1848 23.2119 28.1033 23.2676 28.0349C26.5533 22.4594 29.8397 16.8847 33.1269 11.3108C33.1719 11.2327 33.2145 11.1546 33.2524 11.086C33.224 11.0339 33.1908 11.0457 33.1624 11.0457C31.7587 11.0457 30.3549 11.0599 28.9488 11.0457C28.8887 11.0442 28.8295 11.0613 28.7795 11.0948C28.7294 11.1283 28.691 11.1765 28.6695 11.2327C27.6138 12.9986 26.5533 14.7567 25.488 16.5068C23.2392 20.2185 20.9896 23.9302 18.7392 27.642C18.7203 27.6751 18.699 27.7059 18.6801 27.7414C18.6422 27.8171 18.5948 27.829 18.5144 27.784C18.1664 27.5757 17.8042 27.3768 17.442 27.1638L27.4552 11.1073C27.4339 11.041 27.3889 11.0576 27.3557 11.0576C26.8184 11.041 26.281 11.0173 25.7461 11.0126C24.9933 10.9907 24.2432 11.1112 23.5351 11.3677C22.8907 11.6056 22.343 12.05 21.9775 12.6317C20.1469 15.4865 18.3092 18.3358 16.4644 21.1796L16.3768 21.3145C16.2703 21.3145 16.2868 21.2269 16.2774 21.1654C16.2703 21.074 16.2703 20.9822 16.2774 20.8908C16.2774 17.7424 16.2774 14.5965 16.2774 11.4505C16.2602 11.1792 16.3251 10.9091 16.4636 10.6752C16.602 10.4413 16.8077 10.2545 17.0538 10.1391C19.4731 8.76139 21.8757 7.35293 24.2879 5.95866C25.3649 5.33846 26.4444 4.723 27.512 4.08623C27.7136 3.95208 27.9504 3.88051 28.1925 3.88051C28.4347 3.88051 28.6715 3.95208 28.8731 4.08623C30.8379 5.23904 32.8192 6.36582 34.791 7.50206L39.2626 10.0728C39.3691 10.132 39.4733 10.1983 39.5798 10.2574C39.7545 10.3499 39.8991 10.4904 39.9964 10.6624C40.0937 10.8344 40.1397 11.0307 40.129 11.228C40.129 14.6509 40.129 18.0738 40.129 21.4968C40.1335 21.5767 40.1239 21.6569 40.1006 21.7335C39.9822 21.8471 39.9396 21.7193 39.897 21.6577C39.7195 21.4092 39.5609 21.1464 39.3952 20.8884C38.0743 18.8195 36.7487 16.7538 35.4183 14.6912C34.9709 13.9952 34.5188 13.2993 34.0761 12.6009C33.972 12.4376 33.9554 12.4352 33.8394 12.6009C33.1719 13.7309 32.5051 14.86 31.8392 15.9884C31.8024 16.0511 31.7865 16.1238 31.7937 16.1961C31.801 16.2685 31.831 16.3366 31.8794 16.3908C32.4286 17.2761 32.9809 18.163 33.5364 19.0515L36.3439 23.5917C36.7226 24.2056 37.1022 24.8187 37.4825 25.431C37.5524 25.514 37.5917 25.6185 37.5938 25.7269C37.518 25.876 37.357 25.9187 37.2268 25.9873C37.0094 26.1444 36.7702 26.2688 36.5167 26.3566C36.3818 26.3234 36.3321 26.2004 36.2681 26.0986C35.3994 24.7445 34.5425 23.381 33.6785 22.0223C32.7908 20.6257 31.9078 19.2243 31.0154 17.83C30.9018 17.6501 30.8828 17.6501 30.7787 17.83C30.0046 19.1343 29.24 20.4458 28.4612 21.7501C28.4217 21.8111 28.4023 21.8829 28.4057 21.9555C28.4091 22.0281 28.4351 22.0978 28.4801 22.1549C29.5288 23.7693 30.5514 25.3979 31.5882 27.0194C31.877 27.4715 32.1682 27.9237 32.4523 28.3781C32.5067 28.4681 32.5825 28.5557 32.5327 28.674C32.2613 28.8865 31.9676 29.0691 31.6569 29.2185L28.7429 30.9276C28.5883 31.0294 28.4072 31.0837 28.2221 31.0837C28.037 31.0837 27.856 31.0294 27.7013 30.9276C26.281 30.1022 24.8505 29.2808 23.4097 28.4634C23.3102 28.4234 23.2235 28.3571 23.1587 28.2716Z" fill="#2D374B"/>
<path d="M40.0452 21.7808C40.0452 21.6955 40.0452 21.6103 40.0452 21.5275C40.0452 18.1124 40.0452 14.6974 40.0452 11.2824C40.0577 11.0754 40.0094 10.8692 39.9064 10.6893C39.8034 10.5093 39.6501 10.3633 39.4653 10.2692C35.8798 8.21766 32.2959 6.15743 28.7136 4.08852C28.5521 3.98416 28.3638 3.92865 28.1715 3.92865C27.9792 3.92865 27.791 3.98416 27.6294 4.08852C25.6473 5.24212 23.6597 6.39809 21.6665 7.55643L16.8683 10.3236C16.6967 10.4126 16.5546 10.5494 16.4593 10.7174C16.3639 10.8855 16.3193 11.0776 16.3309 11.2705C16.3404 14.5467 16.3451 17.8228 16.3451 21.099C16.3451 21.1724 16.3167 21.2529 16.3806 21.3168C16.0019 21.9488 15.5853 22.5548 15.1852 23.1727C14.9864 23.4883 14.7859 23.796 14.5839 24.0958C14.5508 24.1456 14.5153 24.1905 14.4514 24.2805C14.4514 24.1763 14.4514 24.1195 14.4514 24.0627C14.4514 19.7434 14.4514 15.4225 14.4514 11.1001C14.4377 10.6199 14.5572 10.1452 14.7966 9.72869C15.036 9.31216 15.386 8.96998 15.8078 8.74001C17.1997 7.91387 18.6081 7.1185 20.0071 6.30893C21.1907 5.62481 22.3743 4.93597 23.5579 4.24949C24.6586 3.61035 25.7475 2.95228 26.8719 2.35575C27.3007 2.11705 27.7857 1.99792 28.2762 2.01083C28.7668 2.02374 29.2449 2.16821 29.6605 2.42913C30.56 2.93808 31.4548 3.45885 32.3519 3.9749L34.8659 5.42597L39.5126 8.09614C39.8535 8.29025 40.192 8.48672 40.5281 8.68557C40.9002 8.89565 41.22 9.18695 41.4639 9.53778C41.7078 9.88861 41.8693 10.2899 41.9366 10.7119C41.9532 10.8334 41.958 10.9563 41.9508 11.0788C41.9508 15.3302 41.9508 19.5824 41.9508 23.8355C41.9546 24.2413 41.8683 24.643 41.698 25.0114C41.5277 25.3798 41.2777 25.7059 40.9661 25.9659C40.7885 26.1001 40.5982 26.2167 40.3979 26.3139C39.2443 26.9862 38.0907 27.6553 36.9371 28.3212L33.2515 30.4517C32.071 31.1366 30.8874 31.8231 29.7007 32.5111C29.4077 32.709 29.0775 32.8451 28.7302 32.9112C28.1534 33.0238 27.5557 32.9474 27.0258 32.6934C26.4387 32.3786 25.8659 32.0377 25.2883 31.7063L22.9543 30.3641L22.2962 29.9877C22.2157 29.9404 22.1613 29.8954 22.2228 29.7889C22.514 29.3036 22.8004 28.8136 23.0892 28.326C23.0892 28.307 23.1247 28.2999 23.1436 28.2857C23.4134 28.4116 23.6744 28.5555 23.9248 28.7166C25.1952 29.4409 26.4624 30.17 27.7265 30.9038C27.8718 30.9976 28.0411 31.0475 28.2141 31.0475C28.3871 31.0475 28.5564 30.9976 28.7018 30.9038C29.9043 30.1937 31.1115 29.5025 32.3164 28.8042L32.4987 28.7047C32.6124 28.5599 32.764 28.4493 32.9366 28.3852C34.0255 27.7626 35.1073 27.1258 36.1962 26.4914C36.2862 26.4393 36.369 26.3589 36.4874 26.3731L37.5526 25.7552C37.6189 25.6179 37.7586 25.5753 37.8745 25.5185C38.4095 25.2084 38.9421 24.8912 39.4842 24.5906C39.6407 24.5081 39.7701 24.3824 39.857 24.2283C39.9439 24.0742 39.9846 23.8984 39.9742 23.7218C39.9742 23.1774 39.9742 22.6353 39.9742 22.0909C39.9638 22.0371 39.9647 21.9817 39.977 21.9283C39.9892 21.8749 40.0124 21.8246 40.0452 21.7808Z" fill="#96BEDC"/>
<path d="M40.048 21.7783C40.048 22.4529 40.0645 23.1299 40.048 23.8022C40.0516 23.9599 40.0118 24.1155 39.9329 24.252C39.8539 24.3885 39.739 24.5007 39.6006 24.5763C38.9212 24.9597 38.2536 25.3669 37.5695 25.7409C37.2973 25.2438 36.9825 24.7704 36.6842 24.2875C35.1377 21.7798 33.5895 19.2746 32.0398 16.7717C31.9475 16.6226 31.8623 16.4663 31.7581 16.3243C31.7257 16.2827 31.7081 16.2315 31.7081 16.1787C31.7081 16.126 31.7257 16.0747 31.7581 16.0331C32.1298 15.4153 32.4919 14.7927 32.8589 14.1725L33.8744 12.4469C33.8933 12.4064 33.9249 12.3732 33.9643 12.3522C34.1427 12.6252 34.3202 12.8998 34.4969 13.176C35.5669 14.8393 36.6361 16.5042 37.7045 18.1707L39.8799 21.5581C39.9197 21.6426 39.9769 21.7176 40.048 21.7783Z" fill="#28A0F0"/>
<path d="M36.5016 26.3581C36.0613 26.6469 35.5926 26.8931 35.1381 27.1629C34.3119 27.6364 33.4811 28.124 32.6549 28.6045L32.5153 28.6803C32.5031 28.6043 32.4704 28.5331 32.4206 28.4743C31.682 27.316 30.945 26.1577 30.2096 24.9993L28.3869 22.1587C28.3453 22.1097 28.3211 22.0482 28.3182 21.984C28.3152 21.9198 28.3335 21.8564 28.3703 21.8037C29.1846 20.4323 29.9958 19.0585 30.8038 17.6824C30.8227 17.6516 30.8369 17.6138 30.8843 17.6043C30.9316 17.5948 30.9671 17.6848 30.9979 17.7345L35.4008 24.6703L36.3477 26.1474C36.3882 26.2302 36.4436 26.3048 36.511 26.3676L36.5016 26.3581Z" fill="#28A0F0"/>
<path d="M0.991 57L3.844 50.7H4.735L7.597 57H6.652L4.105 51.204H4.465L1.918 57H0.991ZM2.206 55.425L2.449 54.705H5.995L6.256 55.425H2.206ZM9.0368 57V50.7H11.4938C12.0458 50.7 12.5168 50.787 12.9068 50.961C13.2968 51.135 13.5968 51.387 13.8068 51.717C14.0168 52.047 14.1218 52.44 14.1218 52.896C14.1218 53.352 14.0168 53.745 13.8068 54.075C13.5968 54.399 13.2968 54.648 12.9068 54.822C12.5168 54.996 12.0458 55.083 11.4938 55.083H9.5318L9.9368 54.669V57H9.0368ZM13.2488 57L11.6468 54.714H12.6098L14.2298 57H13.2488ZM9.9368 54.759L9.5318 54.318H11.4668C12.0428 54.318 12.4778 54.195 12.7718 53.949C13.0718 53.697 13.2218 53.346 13.2218 52.896C13.2218 52.446 13.0718 52.098 12.7718 51.852C12.4778 51.606 12.0428 51.483 11.4668 51.483H9.5318L9.9368 51.033V54.759ZM16.0759 57V50.7H18.9019C19.6279 50.7 20.1859 50.847 20.5759 51.141C20.9659 51.429 21.1609 51.825 21.1609 52.329C21.1609 52.671 21.0829 52.959 20.9269 53.193C20.7769 53.427 20.5729 53.607 20.3149 53.733C20.0569 53.859 19.7779 53.922 19.4779 53.922L19.6399 53.652C19.9999 53.652 20.3179 53.715 20.5939 53.841C20.8699 53.967 21.0889 54.153 21.2509 54.399C21.4129 54.639 21.4939 54.939 21.4939 55.299C21.4939 55.839 21.2899 56.259 20.8819 56.559C20.4799 56.853 19.8799 57 19.0819 57H16.0759ZM16.9759 56.271H19.0459C19.5439 56.271 19.9249 56.187 20.1889 56.019C20.4529 55.851 20.5849 55.587 20.5849 55.227C20.5849 54.861 20.4529 54.594 20.1889 54.426C19.9249 54.258 19.5439 54.174 19.0459 54.174H16.8949V53.445H18.8209C19.2769 53.445 19.6309 53.361 19.8829 53.193C20.1349 53.025 20.2609 52.773 20.2609 52.437C20.2609 52.101 20.1349 51.849 19.8829 51.681C19.6309 51.513 19.2769 51.429 18.8209 51.429H16.9759V56.271ZM23.3874 57V50.7H24.2874V57H23.3874ZM27.9245 57V51.483H25.7645V50.7H30.9755V51.483H28.8155V57H27.9245ZM32.4557 57V50.7H34.9127C35.4647 50.7 35.9357 50.787 36.3257 50.961C36.7157 51.135 37.0157 51.387 37.2257 51.717C37.4357 52.047 37.5407 52.44 37.5407 52.896C37.5407 53.352 37.4357 53.745 37.2257 54.075C37.0157 54.399 36.7157 54.648 36.3257 54.822C35.9357 54.996 35.4647 55.083 34.9127 55.083H32.9507L33.3557 54.669V57H32.4557ZM36.6677 57L35.0657 54.714H36.0287L37.6487 57H36.6677ZM33.3557 54.759L32.9507 54.318H34.8857C35.4617 54.318 35.8967 54.195 36.1907 53.949C36.4907 53.697 36.6407 53.346 36.6407 52.896C36.6407 52.446 36.4907 52.098 36.1907 51.852C35.8967 51.606 35.4617 51.483 34.8857 51.483H32.9507L33.3557 51.033V54.759ZM42.1048 57.072C41.2768 57.072 40.6258 56.835 40.1518 56.361C39.6778 55.887 39.4408 55.194 39.4408 54.282V50.7H40.3408V54.246C40.3408 54.948 40.4938 55.461 40.7998 55.785C41.1118 56.109 41.5498 56.271 42.1138 56.271C42.6838 56.271 43.1218 56.109 43.4278 55.785C43.7398 55.461 43.8958 54.948 43.8958 54.246V50.7H44.7688V54.282C44.7688 55.194 44.5318 55.887 44.0578 56.361C43.5898 56.835 42.9388 57.072 42.1048 57.072ZM47.1139 57V50.7H47.8519L50.6779 55.461H50.2819L53.0719 50.7H53.8099L53.8189 57H52.9549L52.9459 52.059H53.1529L50.6689 56.235H50.2549L47.7529 52.059H47.9779V57H47.1139Z" fill="white"/>
</svg>
