<svg width="63" height="70" viewBox="0 0 63 70" fill="none" xmlns="http://www.w3.org/2000/svg">
<path d="M48.75 17.5C48.75 26.7508 41.2508 34.25 32 34.25C22.7492 34.25 15.25 26.7508 15.25 17.5C15.25 8.24923 22.7492 0.75 32 0.75C41.2508 0.75 48.75 8.24923 48.75 17.5Z" fill="#E84142" stroke="#E84142" stroke-width="1.5"/>
<path fill-rule="evenodd" clip-rule="evenodd" d="M27.6975 23.5852H24.8744C24.2812 23.5852 23.9883 23.5852 23.8091 23.4709C23.7146 23.4094 23.6359 23.3265 23.5794 23.2289C23.5229 23.1313 23.4902 23.0218 23.4839 22.9092C23.4733 22.6985 23.6195 22.4411 23.9128 21.9266L30.8835 9.6409C31.18 9.11929 31.3301 8.85839 31.5195 8.76193C31.6203 8.71083 31.7317 8.6842 31.8447 8.6842C31.9577 8.6842 32.0692 8.71083 32.1699 8.76193C32.3594 8.85878 32.5095 9.11929 32.806 9.6409L34.2393 12.1424L34.2467 12.1552C34.5671 12.7149 34.7294 12.9987 34.8004 13.2966C34.8789 13.6231 34.8789 13.9635 34.8004 14.29C34.729 14.5902 34.568 14.8761 34.2428 15.4442L30.5821 21.9164L30.5726 21.933C30.2503 22.4972 30.0868 22.7833 29.8604 22.9983C29.6151 23.2329 29.3174 23.4056 28.9919 23.5019C28.6944 23.5852 28.362 23.5852 27.6975 23.5852ZM34.8264 23.5852H38.8714C39.4682 23.5852 39.7684 23.5852 39.9472 23.4674C40.0422 23.4058 40.1213 23.3225 40.1778 23.2243C40.2344 23.1262 40.2668 23.016 40.2724 22.9028C40.2826 22.6989 40.1393 22.4515 39.8585 21.9669C39.8488 21.9505 39.8391 21.9336 39.8292 21.9166L37.803 18.4495L37.78 18.4108C37.4953 17.9295 37.3515 17.6862 37.1669 17.5922C37.0668 17.5412 36.956 17.5145 36.8436 17.5145C36.7312 17.5145 36.6204 17.5412 36.5202 17.5922C36.3343 17.6891 36.1844 17.9424 35.8876 18.4534L33.8688 21.9204L33.8618 21.9324C33.5663 22.4426 33.4185 22.6975 33.4291 22.9067C33.4354 23.0197 33.4681 23.1297 33.5246 23.2279C33.581 23.326 33.6597 23.4095 33.7543 23.4717C33.9294 23.5852 34.2296 23.5852 34.8264 23.5852Z" fill="white"/>
<path d="M0.991 57L3.844 50.7H4.735L7.597 57H6.652L4.105 51.204H4.465L1.918 57H0.991ZM2.206 55.425L2.449 54.705H5.995L6.256 55.425H2.206ZM10.5208 57L7.74881 50.7H8.72081L11.2678 56.514H10.7098L13.2748 50.7H14.1748L11.4118 57H10.5208ZM14.3221 57L17.1751 50.7H18.0661L20.9281 57H19.9831L17.4361 51.204H17.7961L15.2491 57H14.3221ZM15.5371 55.425L15.7801 54.705H19.3261L19.5871 55.425H15.5371ZM22.3679 57V50.7H23.2679V56.217H26.6789V57H22.3679ZM27.2576 57L30.1106 50.7H31.0016L33.8636 57H32.9186L30.3716 51.204H30.7316L28.1846 57H27.2576ZM28.4726 55.425L28.7156 54.705H32.2616L32.5226 55.425H28.4726ZM35.3034 57V50.7H36.0414L40.2084 55.875H39.8214V50.7H40.7214V57H39.9834L35.8164 51.825H36.2034V57H35.3034ZM45.9241 57.072C45.4441 57.072 45.0001 56.994 44.5921 56.838C44.1901 56.676 43.8391 56.451 43.5391 56.163C43.2451 55.869 43.0141 55.527 42.8461 55.137C42.6781 54.747 42.5941 54.318 42.5941 53.85C42.5941 53.382 42.6781 52.953 42.8461 52.563C43.0141 52.173 43.2481 51.834 43.5481 51.546C43.8481 51.252 44.1991 51.027 44.6011 50.871C45.0091 50.709 45.4531 50.628 45.9331 50.628C46.4191 50.628 46.8661 50.712 47.2741 50.88C47.6881 51.042 48.0391 51.285 48.3271 51.609L47.7421 52.176C47.5021 51.924 47.2321 51.738 46.9321 51.618C46.6321 51.492 46.3111 51.429 45.9691 51.429C45.6151 51.429 45.2851 51.489 44.9791 51.609C44.6791 51.729 44.4181 51.897 44.1961 52.113C43.9741 52.329 43.8001 52.587 43.6741 52.887C43.5541 53.181 43.4941 53.502 43.4941 53.85C43.4941 54.198 43.5541 54.522 43.6741 54.822C43.8001 55.116 43.9741 55.371 44.1961 55.587C44.4181 55.803 44.6791 55.971 44.9791 56.091C45.2851 56.211 45.6151 56.271 45.9691 56.271C46.3111 56.271 46.6321 56.211 46.9321 56.091C47.2321 55.965 47.5021 55.773 47.7421 55.515L48.3271 56.082C48.0391 56.406 47.6881 56.652 47.2741 56.82C46.8661 56.988 46.4161 57.072 45.9241 57.072ZM54.629 50.7H55.529V57H54.629V50.7ZM51.011 57H50.111V50.7H51.011V57ZM54.71 54.192H50.921V53.409H54.71V54.192ZM58.7337 53.418H61.9737V54.183H58.7337V53.418ZM58.8147 56.217H62.4867V57H57.9147V50.7H62.3607V51.483H58.8147V56.217Z" fill="white"/>
</svg>
