<svg width="42" height="70" viewBox="0 0 42 70" fill="none" xmlns="http://www.w3.org/2000/svg">
<path d="M21 35C30.665 35 38.5 27.165 38.5 17.5C38.5 7.83502 30.665 0 21 0C11.335 0 3.5 7.83502 3.5 17.5C3.5 27.165 11.335 35 21 35Z" fill="#F2892E"/>
<path d="M28.0998 15.1111C28.3992 13.1523 26.8764 12.0991 24.7959 11.3963L25.471 8.74221L23.8233 8.34036L23.1654 10.9244C22.7325 10.8178 22.2881 10.7188 21.8447 10.6197L22.5074 8.01888L20.8598 7.61609L20.1847 10.2693C19.8262 10.1889 19.4734 10.1104 19.132 10.0263L19.1339 10.0179L16.8607 9.46181L16.4221 11.187C16.4221 11.187 17.6455 11.4617 17.6197 11.4786C18.2872 11.6421 18.4073 12.0748 18.3873 12.4187L17.6188 15.442C17.6646 15.4532 17.7237 15.47 17.7904 15.4952L17.6159 15.4532L16.5385 19.6885C16.4565 19.8866 16.2495 20.1848 15.7823 20.0717C15.7995 20.095 14.5847 19.7792 14.5847 19.7792L13.7666 21.6277L15.912 22.152C16.3106 22.2501 16.7015 22.3529 17.0858 22.4492L16.404 25.1332L18.0507 25.535L18.7258 22.8809C19.1759 22.9996 19.6126 23.1099 20.0398 23.2146L19.3666 25.8574L21.0142 26.2593L21.696 23.5809C24.507 24.1024 26.6199 23.8921 27.5096 21.4006C28.2266 19.3951 27.4743 18.2372 25.9954 17.483C27.0729 17.24 27.8833 16.5457 28.0998 15.1111ZM24.3334 20.2866C23.8252 22.2931 20.3782 21.2081 19.2607 20.9361L20.1666 17.3802C21.2841 17.654 24.8664 18.1951 24.3334 20.2866ZM24.8435 15.0822C24.3792 16.9073 21.511 15.9793 20.5813 15.7522L21.4014 12.528C22.331 12.7551 25.3279 13.1785 24.8435 15.0822Z" fill="white"/>
<path d="M0.945 57V50.7H3.771C4.497 50.7 5.055 50.847 5.445 51.141C5.835 51.429 6.03 51.825 6.03 52.329C6.03 52.671 5.952 52.959 5.796 53.193C5.646 53.427 5.442 53.607 5.184 53.733C4.926 53.859 4.647 53.922 4.347 53.922L4.509 53.652C4.869 53.652 5.187 53.715 5.463 53.841C5.739 53.967 5.958 54.153 6.12 54.399C6.282 54.639 6.363 54.939 6.363 55.299C6.363 55.839 6.159 56.259 5.751 56.559C5.349 56.853 4.749 57 3.951 57H0.945ZM1.845 56.271H3.915C4.413 56.271 4.794 56.187 5.058 56.019C5.322 55.851 5.454 55.587 5.454 55.227C5.454 54.861 5.322 54.594 5.058 54.426C4.794 54.258 4.413 54.174 3.915 54.174H1.764V53.445H3.69C4.146 53.445 4.5 53.361 4.752 53.193C5.004 53.025 5.13 52.773 5.13 52.437C5.13 52.101 5.004 51.849 4.752 51.681C4.5 51.513 4.146 51.429 3.69 51.429H1.845V56.271ZM8.25652 57V50.7H9.15652V57H8.25652ZM12.7937 57V51.483H10.6337V50.7H15.8447V51.483H13.6847V57H12.7937ZM20.054 57.072C19.574 57.072 19.13 56.994 18.722 56.838C18.32 56.676 17.969 56.451 17.669 56.163C17.375 55.869 17.144 55.527 16.976 55.137C16.808 54.747 16.724 54.318 16.724 53.85C16.724 53.382 16.808 52.953 16.976 52.563C17.144 52.173 17.378 51.834 17.678 51.546C17.978 51.252 18.329 51.027 18.731 50.871C19.139 50.709 19.583 50.628 20.063 50.628C20.549 50.628 20.996 50.712 21.404 50.88C21.818 51.042 22.169 51.285 22.457 51.609L21.872 52.176C21.632 51.924 21.362 51.738 21.062 51.618C20.762 51.492 20.441 51.429 20.099 51.429C19.745 51.429 19.415 51.489 19.109 51.609C18.809 51.729 18.548 51.897 18.326 52.113C18.104 52.329 17.93 52.587 17.804 52.887C17.684 53.181 17.624 53.502 17.624 53.85C17.624 54.198 17.684 54.522 17.804 54.822C17.93 55.116 18.104 55.371 18.326 55.587C18.548 55.803 18.809 55.971 19.109 56.091C19.415 56.211 19.745 56.271 20.099 56.271C20.441 56.271 20.762 56.211 21.062 56.091C21.362 55.965 21.632 55.773 21.872 55.515L22.457 56.082C22.169 56.406 21.818 56.652 21.404 56.82C20.996 56.988 20.546 57.072 20.054 57.072ZM26.9531 57.072C26.4731 57.072 26.0261 56.991 25.6121 56.829C25.2041 56.667 24.8501 56.442 24.5501 56.154C24.2501 55.86 24.0161 55.518 23.8481 55.128C23.6801 54.738 23.5961 54.312 23.5961 53.85C23.5961 53.388 23.6801 52.962 23.8481 52.572C24.0161 52.182 24.2501 51.843 24.5501 51.555C24.8501 51.261 25.2041 51.033 25.6121 50.871C26.0201 50.709 26.4671 50.628 26.9531 50.628C27.4331 50.628 27.8741 50.709 28.2761 50.871C28.6841 51.027 29.0381 51.252 29.3381 51.546C29.6441 51.834 29.8781 52.173 30.0401 52.563C30.2081 52.953 30.2921 53.382 30.2921 53.85C30.2921 54.318 30.2081 54.747 30.0401 55.137C29.8781 55.527 29.6441 55.869 29.3381 56.163C29.0381 56.451 28.6841 56.676 28.2761 56.838C27.8741 56.994 27.4331 57.072 26.9531 57.072ZM26.9531 56.271C27.3011 56.271 27.6221 56.211 27.9161 56.091C28.2161 55.971 28.4741 55.803 28.6901 55.587C28.9121 55.365 29.0831 55.107 29.2031 54.813C29.3291 54.519 29.3921 54.198 29.3921 53.85C29.3921 53.502 29.3291 53.181 29.2031 52.887C29.0831 52.593 28.9121 52.338 28.6901 52.122C28.4741 51.9 28.2161 51.729 27.9161 51.609C27.6221 51.489 27.3011 51.429 26.9531 51.429C26.5991 51.429 26.2721 51.489 25.9721 51.609C25.6781 51.729 25.4201 51.9 25.1981 52.122C24.9761 52.338 24.8021 52.593 24.6761 52.887C24.5561 53.181 24.4961 53.502 24.4961 53.85C24.4961 54.198 24.5561 54.519 24.6761 54.813C24.8021 55.107 24.9761 55.365 25.1981 55.587C25.4201 55.803 25.6781 55.971 25.9721 56.091C26.2721 56.211 26.5991 56.271 26.9531 56.271ZM32.1677 57V50.7H33.0677V57H32.1677ZM35.4538 57V50.7H36.1918L40.3588 55.875H39.9718V50.7H40.8718V57H40.1338L35.9668 51.825H36.3538V57H35.4538Z" fill="white"/>
</svg>
