<svg width="35" height="70" viewBox="0 0 35 70" fill="none" xmlns="http://www.w3.org/2000/svg">
<path d="M17.5 35C27.165 35 35 27.165 35 17.5C35 7.83502 27.165 0 17.5 0C7.83502 0 0 7.83502 0 17.5C0 27.165 7.83502 35 17.5 35Z" fill="#F3BA2F"/>
<path d="M21.1271 16.0116L17.5015 12.386L13.874 16.0134L11.7643 13.9038L17.5015 8.16667L23.2367 13.9019L21.1271 16.0116ZM26.8362 17.5014L24.7265 15.3917L22.6169 17.5014L24.7265 19.611L26.8362 17.5014ZM21.1271 18.9912L17.5015 22.6168L13.874 18.9893L11.7643 21.098L17.5015 26.8361L23.2395 21.098L21.1271 18.9912ZM12.386 17.5014L10.2764 15.3917L8.16675 17.5014L10.2764 19.611L12.386 17.5014ZM15.3619 17.4995H15.3601V17.5014L17.5015 19.6428L19.6438 17.5014L19.64 17.4986L19.2657 17.1233L17.5015 15.36L15.361 17.5004L15.3619 17.4995Z" fill="white"/>
<path d="M7.445 57V50.7H10.271C10.997 50.7 11.555 50.847 11.945 51.141C12.335 51.429 12.53 51.825 12.53 52.329C12.53 52.671 12.452 52.959 12.296 53.193C12.146 53.427 11.942 53.607 11.684 53.733C11.426 53.859 11.147 53.922 10.847 53.922L11.009 53.652C11.369 53.652 11.687 53.715 11.963 53.841C12.239 53.967 12.458 54.153 12.62 54.399C12.782 54.639 12.863 54.939 12.863 55.299C12.863 55.839 12.659 56.259 12.251 56.559C11.849 56.853 11.249 57 10.451 57H7.445ZM8.345 56.271H10.415C10.913 56.271 11.294 56.187 11.558 56.019C11.822 55.851 11.954 55.587 11.954 55.227C11.954 54.861 11.822 54.594 11.558 54.426C11.294 54.258 10.913 54.174 10.415 54.174H8.264V53.445H10.19C10.646 53.445 11 53.361 11.252 53.193C11.504 53.025 11.63 52.773 11.63 52.437C11.63 52.101 11.504 51.849 11.252 51.681C11 51.513 10.646 51.429 10.19 51.429H8.345V56.271ZM14.7565 57V50.7H15.4945L19.6615 55.875H19.2745V50.7H20.1745V57H19.4365L15.2695 51.825H15.6565V57H14.7565ZM22.5602 57V50.7H25.3862C26.1122 50.7 26.6702 50.847 27.0602 51.141C27.4502 51.429 27.6452 51.825 27.6452 52.329C27.6452 52.671 27.5672 52.959 27.4112 53.193C27.2612 53.427 27.0572 53.607 26.7992 53.733C26.5412 53.859 26.2622 53.922 25.9622 53.922L26.1242 53.652C26.4842 53.652 26.8022 53.715 27.0782 53.841C27.3542 53.967 27.5732 54.153 27.7352 54.399C27.8972 54.639 27.9782 54.939 27.9782 55.299C27.9782 55.839 27.7742 56.259 27.3662 56.559C26.9642 56.853 26.3642 57 25.5662 57H22.5602ZM23.4602 56.271H25.5302C26.0282 56.271 26.4092 56.187 26.6732 56.019C26.9372 55.851 27.0692 55.587 27.0692 55.227C27.0692 54.861 26.9372 54.594 26.6732 54.426C26.4092 54.258 26.0282 54.174 25.5302 54.174H23.3792V53.445H25.3052C25.7612 53.445 26.1152 53.361 26.3672 53.193C26.6192 53.025 26.7452 52.773 26.7452 52.437C26.7452 52.101 26.6192 51.849 26.3672 51.681C26.1152 51.513 25.7612 51.429 25.3052 51.429H23.4602V56.271Z" fill="white"/>
</svg>
