<svg width="57" height="70" viewBox="0 0 57 70" fill="none" xmlns="http://www.w3.org/2000/svg">
<path d="M28.5 35C38.165 35 46 27.165 46 17.5C46 7.83502 38.165 0 28.5 0C18.835 0 11 7.83502 11 17.5C11 27.165 18.835 35 28.5 35Z" fill="#627EEA"/>
<path d="M28.4874 6.72258V14.2749L34.8913 17.1271L28.4874 6.72258Z" fill="white" fill-opacity="0.6"/>
<path d="M28.4874 6.72258L22.0833 17.1267L28.4874 14.2749V6.72258Z" fill="white"/>
<path d="M28.4874 22.0207V27.1521L34.8955 18.3154L28.4874 22.0207Z" fill="white" fill-opacity="0.6"/>
<path d="M28.4874 27.1521V22.0207L22.0833 18.3154L28.4874 27.1521Z" fill="white"/>
<path d="M28.4874 20.8331L34.8913 17.1271L28.4874 14.2749V20.8331Z" fill="white" fill-opacity="0.2"/>
<path d="M22.0833 17.1267L28.4874 20.8331V14.2749L22.0833 17.1267Z" fill="white" fill-opacity="0.6"/>
<path d="M1.764 53.418H5.004V54.183H1.764V53.418ZM1.845 56.217H5.517V57H0.945V50.7H5.391V51.483H1.845V56.217ZM8.7253 57V51.483H6.5653V50.7H11.7763V51.483H9.6163V57H8.7253ZM17.7745 50.7H18.6745V57H17.7745V50.7ZM14.1565 57H13.2565V50.7H14.1565V57ZM17.8555 54.192H14.0665V53.409H17.8555V54.192ZM21.8792 53.418H25.1192V54.183H21.8792V53.418ZM21.9602 56.217H25.6322V57H21.0602V50.7H25.5062V51.483H21.9602V56.217ZM27.5895 57V50.7H30.0465C30.5985 50.7 31.0695 50.787 31.4595 50.961C31.8495 51.135 32.1495 51.387 32.3595 51.717C32.5695 52.047 32.6745 52.44 32.6745 52.896C32.6745 53.352 32.5695 53.745 32.3595 54.075C32.1495 54.399 31.8495 54.648 31.4595 54.822C31.0695 54.996 30.5985 55.083 30.0465 55.083H28.0845L28.4895 54.669V57H27.5895ZM31.8015 57L30.1995 54.714H31.1625L32.7825 57H31.8015ZM28.4895 54.759L28.0845 54.318H30.0195C30.5955 54.318 31.0305 54.195 31.3245 53.949C31.6245 53.697 31.7745 53.346 31.7745 52.896C31.7745 52.446 31.6245 52.098 31.3245 51.852C31.0305 51.606 30.5955 51.483 30.0195 51.483H28.0845L28.4895 51.033V54.759ZM35.4476 53.418H38.6876V54.183H35.4476V53.418ZM35.5286 56.217H39.2006V57H34.6286V50.7H39.0746V51.483H35.5286V56.217ZM43.7679 57.072C42.9399 57.072 42.2889 56.835 41.8149 56.361C41.3409 55.887 41.1039 55.194 41.1039 54.282V50.7H42.0039V54.246C42.0039 54.948 42.1569 55.461 42.4629 55.785C42.7749 56.109 43.2129 56.271 43.7769 56.271C44.3469 56.271 44.7849 56.109 45.0909 55.785C45.4029 55.461 45.5589 54.948 45.5589 54.246V50.7H46.4319V54.282C46.4319 55.194 46.1949 55.887 45.7209 56.361C45.2529 56.835 44.6019 57.072 43.7679 57.072ZM48.777 57V50.7H49.515L52.341 55.461H51.945L54.735 50.7H55.473L55.482 57H54.618L54.609 52.059H54.816L52.332 56.235H51.918L49.416 52.059H49.641V57H48.777Z" fill="white"/>
</svg>
