<svg width="100" height="15" viewBox="0 0 200 30" fill="none" xmlns="http://www.w3.org/2000/svg">
<g clip-path="url(#clip0_516_515)">
<path fill-rule="evenodd" clip-rule="evenodd" d="M87.74 23.0573H90.13V6.78732H87.74V23.0573ZM90.49 1.64732C90.49 2.56732 89.81 3.28732 88.91 3.28732C88.01 3.28732 87.33 2.57732 87.33 1.64732C87.33 0.687324 88.01 0.00732422 88.91 0.00732422C89.81 0.0173242 90.49 0.697324 90.49 1.64732Z" fill="#282828"/>
<path fill-rule="evenodd" clip-rule="evenodd" d="M108.56 14.9472C108.56 11.3572 106.12 8.75724 102.68 8.75724C99.21 8.75724 96.77 11.3572 96.77 14.9472C96.77 18.5372 99.21 21.1072 102.68 21.1072C106.12 21.1172 108.56 18.5372 108.56 14.9472ZM110.97 6.78724V29.0672H108.56V19.5672C107.35 21.8572 105.13 23.1872 102.21 23.1872C97.57 23.1872 94.35 19.7572 94.35 14.8972C94.35 10.0372 97.57 6.66724 102.17 6.66724C105.08 6.66724 107.34 7.99724 108.54 10.3172V6.78724H110.97Z" fill="#282828"/>
<path fill-rule="evenodd" clip-rule="evenodd" d="M131.15 6.78735V23.0674H128.74V19.3874C127.66 21.9174 125.49 23.1374 122.55 23.1574C118.75 23.1574 116.45 20.7474 116.45 16.8074V6.78735H118.86V16.1974C118.86 19.1074 120.56 20.8374 123.37 20.8374C126.75 20.7674 128.73 18.2974 128.73 14.7674V6.78735H131.15Z" fill="#282828"/>
<path fill-rule="evenodd" clip-rule="evenodd" d="M149.56 15.5672V14.3272C149.28 11.0472 146.93 8.75724 143.71 8.75724C140.24 8.75724 137.8 11.3572 137.8 14.9472C137.8 18.5372 140.24 21.1072 143.71 21.1072C146.93 21.1172 149.28 18.8472 149.56 15.5672ZM151.97 6.78724V23.0672H149.55V19.5972C148.34 21.8572 146.12 23.1872 143.24 23.1872C138.6 23.1872 135.38 19.7572 135.38 14.8972C135.38 10.0672 138.57 6.66724 143.15 6.66724C146.09 6.63724 148.32 7.96724 149.55 10.2572V6.78724C149.55 6.78724 151.97 6.78724 151.97 6.78724Z" fill="#282828"/>
<path fill-rule="evenodd" clip-rule="evenodd" d="M165.93 23.0573H168.32V6.78732H165.93V23.0573ZM168.69 1.64732C168.69 2.56732 168.01 3.28732 167.11 3.28732C166.21 3.28732 165.53 2.57732 165.53 1.64732C165.53 0.687324 166.21 0.00732422 167.11 0.00732422C168.01 0.0173242 168.69 0.697324 168.69 1.64732Z" fill="#282828"/>
<path fill-rule="evenodd" clip-rule="evenodd" d="M181.62 21.9474C180.44 22.7274 179.18 23.1574 177.97 23.1574C175.49 23.1574 173.76 21.4274 173.76 17.9274V0.057373H176.15V6.78737H180.99V9.17737H176.15V17.5274C176.15 19.8474 176.93 20.9274 178.35 20.9274C179.16 20.9274 180.03 20.6174 180.92 20.0974L181.62 21.9474Z" fill="#282828"/>
<path fill-rule="evenodd" clip-rule="evenodd" d="M157.54 23.0273H159.93V-0.00268555H157.54V23.0273Z" fill="#282828"/>
<path fill-rule="evenodd" clip-rule="evenodd" d="M79.1 23.0273H81.49V-0.00268555H79.1V23.0273Z" fill="#282828"/>
<path fill-rule="evenodd" clip-rule="evenodd" d="M200 6.92725V21.2872C200 26.1272 197.03 29.1072 192.18 29.0872C189.75 29.0272 187.18 28.0172 185.55 26.4472L186.28 24.6972C187.75 26.0472 189.87 26.9372 191.96 27.0372C195.48 27.0372 197.61 24.8872 197.61 21.2672V18.2972C196.54 20.5372 194.54 21.7072 191.68 21.7272C187.63 21.7272 185.18 19.3372 185.18 15.4372V6.92725H187.57V14.8172C187.57 17.6972 189.29 19.4272 192.18 19.4272C195.61 19.3672 197.61 17.0372 197.61 13.2272V6.92725H200Z" fill="#282828"/>
<path fill-rule="evenodd" clip-rule="evenodd" d="M3.41 3.32006C3.39 3.34006 3.38 3.35006 3.36 3.37006C1.59 5.17006 0.51 7.41006 0.15 9.73006C0.05 10.3201 0 10.9101 0 11.5201V11.5901C0 12.1601 0.05 12.7401 0.13 13.3101C0.39 15.0801 1.07 16.8001 2.15 18.3101C2.5 18.8101 2.91 19.2901 3.36 19.7501C3.38 19.7701 3.39 19.7801 3.41 19.8001C4.38 20.7701 5.46 21.5201 6.61 22.0501C10.84 24.0101 15.99 23.1101 19.84 19.8301C19.85 19.8201 19.86 19.8101 19.87 19.8101C24.22 16.0901 28.21 12.7201 32.51 12.7201C36.8 12.7201 40.8 16.0901 45.14 19.8101C46.32 20.8201 47.62 21.6101 48.99 22.1501C50.77 22.8701 52.65 23.1801 54.5 23.0501C57.09 22.8701 59.59 21.8201 61.61 19.8001C61.63 19.7801 61.64 19.7701 61.66 19.7501C62.11 19.3001 62.51 18.8201 62.87 18.3101C63.95 16.7901 64.63 15.0701 64.89 13.3101C65.07 12.1301 65.06 10.9201 64.88 9.74006C64.52 7.41006 63.44 5.18006 61.67 3.38006C61.65 3.36006 61.64 3.35006 61.62 3.33006C59.61 1.32006 57.11 0.270059 54.51 0.0900586C52.66 -0.0299414 50.77 0.280059 48.98 1.00006C47.62 1.54006 46.31 2.33006 45.14 3.33006C40.77 7.03006 36.82 10.4201 32.51 10.4201C28.2 10.4201 24.22 7.02006 19.86 3.32006C19.85 3.31006 19.84 3.30006 19.84 3.30006C17.34 1.19006 14.29 0.0600586 11.3 0.0600586C9.68 0.0600586 8.08 0.390059 6.6 1.08006C5.46 1.61006 4.37 2.35006 3.41 3.32006Z" fill="url(#paint0_radial_516_515)"/>
</g>
<defs>
<radialGradient id="paint0_radial_516_515" cx="0" cy="0" r="1" gradientUnits="userSpaceOnUse" gradientTransform="translate(-4.34075 11.5636) scale(74.4207 40.4117)">
<stop stop-color="#1CE5C3"/>
<stop offset="0.1025" stop-color="#1CE5C3"/>
<stop offset="0.4747" stop-color="#5440D7"/>
<stop offset="0.6308" stop-color="#8B2CE4"/>
<stop offset="0.7957" stop-color="#D421EB"/>
<stop offset="1" stop-color="#AC39FD"/>
</radialGradient>
<clipPath id="clip0_516_515">
<rect width="200" height="29" fill="white"/>
</clipPath>
</defs>
</svg>
