<svg width="35" height="71" viewBox="0 0 35 71" fill="none" xmlns="http://www.w3.org/2000/svg">
<path d="M17.3077 35.4486C26.8665 35.4486 34.6154 27.6135 34.6154 17.9486C34.6154 8.28358 26.8665 0.448563 17.3077 0.448563C7.74892 0.448563 0 8.28358 0 17.9486C0 27.6135 7.74892 35.4486 17.3077 35.4486Z" fill="#E2E7EC"/>
<path d="M22.7079 9.8138L18.9684 15.4312C18.9143 15.5128 18.8915 15.6115 18.9044 15.7089C18.9172 15.8063 18.9648 15.8956 19.0382 15.96C19.1115 16.0243 19.2056 16.0593 19.3026 16.0583C19.3997 16.0573 19.4931 16.0205 19.5652 15.9547L23.2449 12.7131C23.2663 12.6935 23.293 12.6809 23.3216 12.677C23.3502 12.673 23.3793 12.6779 23.405 12.6909C23.4308 12.704 23.4521 12.7246 23.4662 12.7501C23.4802 12.7756 23.4863 12.8048 23.4836 12.8339V22.9613C23.4832 22.9915 23.4739 23.0208 23.4569 23.0456C23.4398 23.0704 23.4158 23.0894 23.388 23.1003C23.3602 23.1111 23.3298 23.1132 23.3007 23.1064C23.2717 23.0996 23.2453 23.0841 23.225 23.062L12.0863 9.57219C11.9109 9.35467 11.6892 9.18012 11.4377 9.06157C11.1863 8.94303 10.9116 8.88357 10.6343 8.88763H10.2364C9.73314 8.89189 9.25194 9.09753 8.89791 9.45967C8.54387 9.82181 8.34576 10.311 8.34683 10.8205V25.0754C8.34648 25.4971 8.48244 25.9075 8.73397 26.2437C8.9855 26.58 9.33878 26.8238 9.73994 26.9378C10.1411 27.0519 10.5681 27.03 10.9558 26.8755C11.3435 26.721 11.6707 26.4423 11.8874 26.0821L15.6268 20.4647C15.6809 20.3831 15.7037 20.2843 15.6909 20.1869C15.678 20.0895 15.6304 20.0003 15.5571 19.9359C15.4837 19.8716 15.3897 19.8366 15.2926 19.8375C15.1955 19.8385 15.1022 19.8754 15.0301 19.9412L11.3503 23.1626C11.3289 23.1822 11.3022 23.1948 11.2736 23.1988C11.2451 23.2027 11.216 23.1978 11.1902 23.1848C11.1644 23.1717 11.1431 23.1511 11.1291 23.1256C11.1151 23.1001 11.109 23.0709 11.1116 23.0418V12.9346C11.112 12.9044 11.1213 12.875 11.1384 12.8502C11.1554 12.8255 11.1794 12.8064 11.2072 12.7956C11.2351 12.7848 11.2655 12.7826 11.2945 12.7895C11.3236 12.7963 11.3499 12.8118 11.3702 12.8339L22.509 26.3237C22.6858 26.5395 22.9078 26.7129 23.1589 26.8313C23.41 26.9497 23.684 27.0101 23.961 27.0082H24.3588C24.8652 27.0082 25.3509 26.8046 25.709 26.4421C26.0671 26.0796 26.2683 25.588 26.2683 25.0754V10.8205C26.265 10.3981 26.1261 9.98821 25.8725 9.65274C25.6188 9.31726 25.2643 9.07437 24.8624 8.96073C24.4605 8.84708 24.0329 8.86884 23.6443 9.02272C23.2556 9.17661 22.927 9.45426 22.7079 9.8138Z" fill="#313747"/>
<path d="M4.445 58V51.7H5.183L9.35 56.875H8.963V51.7H9.863V58H9.125L4.958 52.825H5.345V58H4.445ZM13.0677 54.418H16.3077V55.183H13.0677V54.418ZM13.1487 57.217H16.8207V58H12.2487V51.7H16.6947V52.483H13.1487V57.217ZM17.824 58L20.677 51.7H21.568L24.43 58H23.485L20.938 52.204H21.298L18.751 58H17.824ZM19.039 56.425L19.282 55.705H22.828L23.089 56.425H19.039ZM25.8698 58V51.7H28.3268C28.8788 51.7 29.3498 51.787 29.7398 51.961C30.1298 52.135 30.4298 52.387 30.6398 52.717C30.8498 53.047 30.9548 53.44 30.9548 53.896C30.9548 54.352 30.8498 54.745 30.6398 55.075C30.4298 55.399 30.1298 55.648 29.7398 55.822C29.3498 55.996 28.8788 56.083 28.3268 56.083H26.3648L26.7698 55.669V58H25.8698ZM30.0818 58L28.4798 55.714H29.4428L31.0628 58H30.0818ZM26.7698 55.759L26.3648 55.318H28.2998C28.8758 55.318 29.3108 55.195 29.6048 54.949C29.9048 54.697 30.0548 54.346 30.0548 53.896C30.0548 53.446 29.9048 53.098 29.6048 52.852C29.3108 52.606 28.8758 52.483 28.2998 52.483H26.3648L26.7698 52.033V55.759Z" fill="white"/>
</svg>
