<svg width="51" height="71" viewBox="0 0 51 71" fill="none" xmlns="http://www.w3.org/2000/svg">
<path d="M25.5 35.8701C35.165 35.8701 43 28.0351 43 18.3701C43 8.70513 35.165 0.870117 25.5 0.870117C15.835 0.870117 8 8.70513 8 18.3701C8 28.0351 15.835 35.8701 25.5 35.8701Z" fill="#FF0420"/>
<path d="M20.3991 23.0217C19.3575 23.0217 18.5038 22.7765 17.8378 22.286C17.1812 21.7872 16.8529 21.0778 16.8529 20.158C16.8568 19.9203 16.8788 19.6833 16.9187 19.4489C17.0326 18.818 17.1945 18.0606 17.4045 17.1767C18.0005 14.7687 19.5372 13.5647 22.0147 13.5647C22.636 13.5542 23.2529 13.6705 23.8277 13.9063C24.3377 14.1062 24.7764 14.4538 25.0877 14.9045C25.3943 15.3423 25.5476 15.8675 25.5476 16.4802C25.5433 16.7137 25.5213 16.9465 25.4818 17.1767C25.3502 17.9561 25.1925 18.7135 25.0086 19.4489C24.7025 20.6487 24.1728 21.5461 23.4196 22.1411C22.6669 22.7287 21.6601 23.0222 20.3991 23.0217ZM20.5832 21.1317C21.0382 21.1441 21.4821 20.9897 21.8313 20.6977C22.1813 20.4093 22.4308 19.966 22.5796 19.3677C22.7812 18.5445 22.9345 17.8266 23.0395 17.2138C23.0747 17.0276 23.0923 16.8385 23.092 16.6489C23.092 15.8523 22.676 15.454 21.8439 15.454C21.3856 15.4431 20.9386 15.5968 20.5839 15.8873C20.2423 16.1762 19.9971 16.6184 19.8482 17.2138C19.691 17.8004 19.5335 18.5184 19.3757 19.3677C19.3401 19.5494 19.3225 19.7342 19.3232 19.9193C19.3228 20.7267 19.7428 21.1303 20.5832 21.1303V21.1317Z" fill="white"/>
<path d="M26.151 22.8902C26.1093 22.8925 26.0676 22.8855 26.0289 22.8696C25.9903 22.8538 25.9557 22.8294 25.9277 22.7985C25.8841 22.7278 25.87 22.6428 25.8885 22.5619L27.7008 14.0219C27.7171 13.9276 27.769 13.8432 27.8457 13.786C27.9157 13.7275 28.0037 13.6949 28.0949 13.6936H31.59C32.562 13.6936 33.3414 13.8949 33.928 14.2977C34.5234 14.7009 34.8212 15.2842 34.8212 16.0477C34.8201 16.2776 34.7938 16.5067 34.7428 16.7309C34.5239 17.7375 34.0817 18.4818 33.4163 18.9639C32.7587 19.445 31.8562 19.6856 30.7087 19.6856H28.9356L28.3315 22.5619C28.3152 22.6562 28.2636 22.7408 28.1873 22.7985C28.1167 22.8564 28.0286 22.8887 27.9374 22.8902H26.151ZM30.8011 17.8726C31.145 17.88 31.4818 17.774 31.7594 17.5709C32.0453 17.361 32.2421 17.0515 32.311 16.7036C32.3357 16.5736 32.3491 16.4418 32.3509 16.3095C32.3509 16.0554 32.276 15.8629 32.1276 15.732C31.9792 15.6011 31.7244 15.522 31.366 15.522H29.7896L29.2905 17.8733L30.8011 17.8726Z" fill="white"/>
<path d="M3.789 58.072C3.309 58.072 2.862 57.991 2.448 57.829C2.04 57.667 1.686 57.442 1.386 57.154C1.086 56.86 0.852 56.518 0.684 56.128C0.516 55.738 0.432 55.312 0.432 54.85C0.432 54.388 0.516 53.962 0.684 53.572C0.852 53.182 1.086 52.843 1.386 52.555C1.686 52.261 2.04 52.033 2.448 51.871C2.856 51.709 3.303 51.628 3.789 51.628C4.269 51.628 4.71 51.709 5.112 51.871C5.52 52.027 5.874 52.252 6.174 52.546C6.48 52.834 6.714 53.173 6.876 53.563C7.044 53.953 7.128 54.382 7.128 54.85C7.128 55.318 7.044 55.747 6.876 56.137C6.714 56.527 6.48 56.869 6.174 57.163C5.874 57.451 5.52 57.676 5.112 57.838C4.71 57.994 4.269 58.072 3.789 58.072ZM3.789 57.271C4.137 57.271 4.458 57.211 4.752 57.091C5.052 56.971 5.31 56.803 5.526 56.587C5.748 56.365 5.919 56.107 6.039 55.813C6.165 55.519 6.228 55.198 6.228 54.85C6.228 54.502 6.165 54.181 6.039 53.887C5.919 53.593 5.748 53.338 5.526 53.122C5.31 52.9 5.052 52.729 4.752 52.609C4.458 52.489 4.137 52.429 3.789 52.429C3.435 52.429 3.108 52.489 2.808 52.609C2.514 52.729 2.256 52.9 2.034 53.122C1.812 53.338 1.638 53.593 1.512 53.887C1.392 54.181 1.332 54.502 1.332 54.85C1.332 55.198 1.392 55.519 1.512 55.813C1.638 56.107 1.812 56.365 2.034 56.587C2.256 56.803 2.514 56.971 2.808 57.091C3.108 57.211 3.435 57.271 3.789 57.271ZM9.00359 58V51.7H11.4606C12.0126 51.7 12.4836 51.787 12.8736 51.961C13.2636 52.135 13.5636 52.387 13.7736 52.717C13.9836 53.047 14.0886 53.44 14.0886 53.896C14.0886 54.352 13.9836 54.745 13.7736 55.075C13.5636 55.399 13.2636 55.651 12.8736 55.831C12.4836 56.005 12.0126 56.092 11.4606 56.092H9.49859L9.90359 55.669V58H9.00359ZM9.90359 55.759L9.49859 55.309H11.4336C12.0096 55.309 12.4446 55.186 12.7386 54.94C13.0386 54.694 13.1886 54.346 13.1886 53.896C13.1886 53.446 13.0386 53.098 12.7386 52.852C12.4446 52.606 12.0096 52.483 11.4336 52.483H9.49859L9.90359 52.033V55.759ZM16.9597 58V52.483H14.7997V51.7H20.0107V52.483H17.8507V58H16.9597ZM21.4909 58V51.7H22.3909V58H21.4909ZM24.777 58V51.7H25.515L28.341 56.461H27.945L30.735 51.7H31.473L31.482 58H30.618L30.609 53.059H30.816L28.332 57.235H27.918L25.416 53.059H25.641V58H24.777ZM33.8727 58V51.7H34.7727V58H33.8727ZM38.9949 58.072C38.5149 58.072 38.0559 58 37.6179 57.856C37.1799 57.706 36.8349 57.514 36.5829 57.28L36.9159 56.578C37.1559 56.788 37.4619 56.962 37.8339 57.1C38.2059 57.238 38.5929 57.307 38.9949 57.307C39.3609 57.307 39.6579 57.265 39.8859 57.181C40.1139 57.097 40.2819 56.983 40.3899 56.839C40.4979 56.689 40.5519 56.521 40.5519 56.335C40.5519 56.119 40.4799 55.945 40.3359 55.813C40.1979 55.681 40.0149 55.576 39.7869 55.498C39.5649 55.414 39.3189 55.342 39.0489 55.282C38.7789 55.222 38.5059 55.153 38.2299 55.075C37.9599 54.991 37.7109 54.886 37.4829 54.76C37.2609 54.634 37.0809 54.466 36.9429 54.256C36.8049 54.04 36.7359 53.764 36.7359 53.428C36.7359 53.104 36.8199 52.807 36.9879 52.537C37.1619 52.261 37.4259 52.042 37.7799 51.88C38.1399 51.712 38.5959 51.628 39.1479 51.628C39.5139 51.628 39.8769 51.676 40.2369 51.772C40.5969 51.868 40.9089 52.006 41.1729 52.186L40.8759 52.906C40.6059 52.726 40.3209 52.597 40.0209 52.519C39.7209 52.435 39.4299 52.393 39.1479 52.393C38.7939 52.393 38.5029 52.438 38.2749 52.528C38.0469 52.618 37.8789 52.738 37.7709 52.888C37.6689 53.038 37.6179 53.206 37.6179 53.392C37.6179 53.614 37.6869 53.791 37.8249 53.923C37.9689 54.055 38.1519 54.16 38.3739 54.238C38.6019 54.316 38.8509 54.388 39.1209 54.454C39.3909 54.514 39.6609 54.583 39.9309 54.661C40.2069 54.739 40.4559 54.841 40.6779 54.967C40.9059 55.093 41.0889 55.261 41.2269 55.471C41.3649 55.681 41.4339 55.951 41.4339 56.281C41.4339 56.599 41.3469 56.896 41.1729 57.172C40.9989 57.442 40.7289 57.661 40.3629 57.829C40.0029 57.991 39.5469 58.072 38.9949 58.072ZM43.2487 58V51.7H43.9867L46.8127 56.461H46.4167L49.2067 51.7H49.9447L49.9537 58H49.0897L49.0807 53.059H49.2877L46.8037 57.235H46.3897L43.8877 53.059H44.1127V58H43.2487Z" fill="white"/>
</svg>
