<svg width="50" height="71" viewBox="0 0 50 71" fill="none" xmlns="http://www.w3.org/2000/svg">
<path d="M24.995 35.9202C34.6572 35.9202 42.49 28.0852 42.49 18.4202C42.49 8.75526 34.6572 0.920242 24.995 0.920242C15.3328 0.920242 7.5 8.75526 7.5 18.4202C7.5 28.0852 15.3328 35.9202 24.995 35.9202Z" fill="#8247E5"/>
<path d="M30.7802 14.5332C30.5633 14.4163 30.3212 14.3552 30.0754 14.3552C29.8296 14.3552 29.5875 14.4163 29.3706 14.5332L26.0818 16.4917L23.85 17.738L20.6199 19.6964C20.403 19.8133 20.161 19.8744 19.9151 19.8744C19.6693 19.8744 19.4273 19.8133 19.2104 19.6964L16.685 18.1534C16.4705 18.0255 16.2926 17.8432 16.169 17.6247C16.0455 17.4061 15.9804 17.1588 15.9802 16.9071V13.9397C15.9821 13.6884 16.0479 13.4417 16.1713 13.2235C16.2947 13.0052 16.4716 12.8227 16.685 12.6934L19.2104 11.2098C19.4273 11.0929 19.6693 11.0317 19.9151 11.0317C20.161 11.0317 20.403 11.0929 20.6199 11.2098L23.1453 12.7528C23.3598 12.8807 23.5376 13.0629 23.6612 13.2815C23.7848 13.5 23.8499 13.7474 23.85 13.9991V15.9575L26.0818 14.6519V12.6341C26.0799 12.3827 26.0141 12.1361 25.8907 11.9178C25.7673 11.6996 25.5904 11.5171 25.377 11.3878L20.6786 8.5985C20.4617 8.4816 20.2197 8.42046 19.9739 8.42046C19.7281 8.42046 19.486 8.4816 19.2691 8.5985L14.4533 11.4472C14.2375 11.5584 14.057 11.7286 13.9324 11.9385C13.8078 12.1484 13.7441 12.3894 13.7485 12.6341V18.2127C13.7504 18.4641 13.8162 18.7108 13.9396 18.929C14.063 19.1473 14.2399 19.3298 14.4533 19.459L19.2104 22.2483C19.4273 22.3652 19.6693 22.4264 19.9151 22.4264C20.161 22.4264 20.403 22.3652 20.6199 22.2483L23.85 20.3492L26.0818 19.0436L29.3119 17.1445C29.5288 17.0276 29.7709 16.9664 30.0167 16.9664C30.2625 16.9664 30.5045 17.0276 30.7214 17.1445L33.2468 18.6282C33.4614 18.7561 33.6392 18.9383 33.7628 19.1569C33.8864 19.3754 33.9514 19.6227 33.9516 19.8744V22.8418C33.9497 23.0932 33.8839 23.3398 33.7605 23.5581C33.6371 23.7763 33.4602 23.9588 33.2468 24.0881L30.7802 25.5718C30.5633 25.6887 30.3212 25.7498 30.0754 25.7498C29.8296 25.7498 29.5875 25.6887 29.3706 25.5718L26.8453 24.0881C26.6307 23.9602 26.4529 23.7779 26.3293 23.5594C26.2057 23.3408 26.1407 23.0935 26.1405 22.8418V20.9427L23.9088 22.2483V24.2068C23.9106 24.4582 23.9764 24.7048 24.0999 24.9231C24.2233 25.1413 24.4002 25.3238 24.6135 25.4531L29.3706 28.2424C29.5875 28.3593 29.8296 28.4204 30.0754 28.4204C30.3212 28.4204 30.5633 28.3593 30.7802 28.2424L35.5373 25.4531C35.7518 25.3252 35.9296 25.1429 36.0532 24.9244C36.1768 24.7058 36.2419 24.4585 36.242 24.2068V18.5688C36.2402 18.3174 36.1744 18.0708 36.0509 17.8525C35.9275 17.6343 35.7506 17.4518 35.5373 17.3225L30.7802 14.5332Z" fill="white"/>
<path d="M0.945 58V51.7H3.402C3.954 51.7 4.425 51.787 4.815 51.961C5.205 52.135 5.505 52.387 5.715 52.717C5.925 53.047 6.03 53.44 6.03 53.896C6.03 54.352 5.925 54.745 5.715 55.075C5.505 55.399 5.205 55.651 4.815 55.831C4.425 56.005 3.954 56.092 3.402 56.092H1.44L1.845 55.669V58H0.945ZM1.845 55.759L1.44 55.309H3.375C3.951 55.309 4.386 55.186 4.68 54.94C4.98 54.694 5.13 54.346 5.13 53.896C5.13 53.446 4.98 53.098 4.68 52.852C4.386 52.606 3.951 52.483 3.375 52.483H1.44L1.845 52.033V55.759ZM10.7841 58.072C10.3041 58.072 9.85712 57.991 9.44312 57.829C9.03512 57.667 8.68112 57.442 8.38112 57.154C8.08112 56.86 7.84712 56.518 7.67912 56.128C7.51112 55.738 7.42712 55.312 7.42712 54.85C7.42712 54.388 7.51112 53.962 7.67912 53.572C7.84712 53.182 8.08112 52.843 8.38112 52.555C8.68112 52.261 9.03512 52.033 9.44312 51.871C9.85112 51.709 10.2981 51.628 10.7841 51.628C11.2641 51.628 11.7051 51.709 12.1071 51.871C12.5151 52.027 12.8691 52.252 13.1691 52.546C13.4751 52.834 13.7091 53.173 13.8711 53.563C14.0391 53.953 14.1231 54.382 14.1231 54.85C14.1231 55.318 14.0391 55.747 13.8711 56.137C13.7091 56.527 13.4751 56.869 13.1691 57.163C12.8691 57.451 12.5151 57.676 12.1071 57.838C11.7051 57.994 11.2641 58.072 10.7841 58.072ZM10.7841 57.271C11.1321 57.271 11.4531 57.211 11.7471 57.091C12.0471 56.971 12.3051 56.803 12.5211 56.587C12.7431 56.365 12.9141 56.107 13.0341 55.813C13.1601 55.519 13.2231 55.198 13.2231 54.85C13.2231 54.502 13.1601 54.181 13.0341 53.887C12.9141 53.593 12.7431 53.338 12.5211 53.122C12.3051 52.9 12.0471 52.729 11.7471 52.609C11.4531 52.489 11.1321 52.429 10.7841 52.429C10.4301 52.429 10.1031 52.489 9.80312 52.609C9.50912 52.729 9.25112 52.9 9.02912 53.122C8.80712 53.338 8.63312 53.593 8.50712 53.887C8.38712 54.181 8.32712 54.502 8.32712 54.85C8.32712 55.198 8.38712 55.519 8.50712 55.813C8.63312 56.107 8.80712 56.365 9.02912 56.587C9.25112 56.803 9.50912 56.971 9.80312 57.091C10.1031 57.211 10.4301 57.271 10.7841 57.271ZM15.9987 58V51.7H16.8987V57.217H20.3097V58H15.9987ZM22.7043 58V55.588L22.9113 56.146L20.2023 51.7H21.1653L23.4423 55.453H22.9203L25.2063 51.7H26.0973L23.3973 56.146L23.5953 55.588V58H22.7043ZM30.082 58.072C29.596 58.072 29.149 57.994 28.741 57.838C28.333 57.676 27.979 57.451 27.679 57.163C27.379 56.869 27.145 56.527 26.977 56.137C26.809 55.747 26.725 55.318 26.725 54.85C26.725 54.382 26.809 53.953 26.977 53.563C27.145 53.173 27.379 52.834 27.679 52.546C27.985 52.252 28.342 52.027 28.75 51.871C29.158 51.709 29.608 51.628 30.1 51.628C30.598 51.628 31.054 51.709 31.468 51.871C31.882 52.033 32.233 52.276 32.521 52.6L31.963 53.158C31.705 52.906 31.423 52.723 31.117 52.609C30.817 52.489 30.49 52.429 30.136 52.429C29.776 52.429 29.44 52.489 29.128 52.609C28.822 52.729 28.555 52.897 28.327 53.113C28.105 53.329 27.931 53.587 27.805 53.887C27.685 54.181 27.625 54.502 27.625 54.85C27.625 55.192 27.685 55.513 27.805 55.813C27.931 56.107 28.105 56.365 28.327 56.587C28.555 56.803 28.822 56.971 29.128 57.091C29.434 57.211 29.767 57.271 30.127 57.271C30.463 57.271 30.784 57.22 31.09 57.118C31.402 57.01 31.69 56.833 31.954 56.587L32.467 57.271C32.155 57.535 31.789 57.736 31.369 57.874C30.955 58.006 30.526 58.072 30.082 58.072ZM31.603 57.154V54.814H32.467V57.271L31.603 57.154ZM37.5341 58.072C37.0541 58.072 36.6071 57.991 36.1931 57.829C35.7851 57.667 35.4311 57.442 35.1311 57.154C34.8311 56.86 34.5971 56.518 34.4291 56.128C34.2611 55.738 34.1771 55.312 34.1771 54.85C34.1771 54.388 34.2611 53.962 34.4291 53.572C34.5971 53.182 34.8311 52.843 35.1311 52.555C35.4311 52.261 35.7851 52.033 36.1931 51.871C36.6011 51.709 37.0481 51.628 37.5341 51.628C38.0141 51.628 38.4551 51.709 38.8571 51.871C39.2651 52.027 39.6191 52.252 39.9191 52.546C40.2251 52.834 40.4591 53.173 40.6211 53.563C40.7891 53.953 40.8731 54.382 40.8731 54.85C40.8731 55.318 40.7891 55.747 40.6211 56.137C40.4591 56.527 40.2251 56.869 39.9191 57.163C39.6191 57.451 39.2651 57.676 38.8571 57.838C38.4551 57.994 38.0141 58.072 37.5341 58.072ZM37.5341 57.271C37.8821 57.271 38.2031 57.211 38.4971 57.091C38.7971 56.971 39.0551 56.803 39.2711 56.587C39.4931 56.365 39.6641 56.107 39.7841 55.813C39.9101 55.519 39.9731 55.198 39.9731 54.85C39.9731 54.502 39.9101 54.181 39.7841 53.887C39.6641 53.593 39.4931 53.338 39.2711 53.122C39.0551 52.9 38.7971 52.729 38.4971 52.609C38.2031 52.489 37.8821 52.429 37.5341 52.429C37.1801 52.429 36.8531 52.489 36.5531 52.609C36.2591 52.729 36.0011 52.9 35.7791 53.122C35.5571 53.338 35.3831 53.593 35.2571 53.887C35.1371 54.181 35.0771 54.502 35.0771 54.85C35.0771 55.198 35.1371 55.519 35.2571 55.813C35.3831 56.107 35.5571 56.365 35.7791 56.587C36.0011 56.803 36.2591 56.971 36.5531 57.091C36.8531 57.211 37.1801 57.271 37.5341 57.271ZM42.7487 58V51.7H43.4867L47.6537 56.875H47.2667V51.7H48.1667V58H47.4287L43.2617 52.825H43.6487V58H42.7487Z" fill="white"/>
</svg>
