<svg width="36" height="71" viewBox="0 0 36 71" fill="none" xmlns="http://www.w3.org/2000/svg">
<path d="M17.8191 35.4375C27.4841 35.4375 35.3191 27.6024 35.3191 17.9375C35.3191 8.27247 27.4841 0.437454 17.8191 0.437454C8.15411 0.437454 0.319092 8.27247 0.319092 17.9375C0.319092 27.6024 8.15411 35.4375 17.8191 35.4375Z" fill="white"/>
<path d="M22.2018 19.0352L25.3542 17.2489C25.3542 17.2489 24.264 16.5133 23.1869 17.1307C22.1099 17.748 22.2018 19.0352 22.2018 19.0352Z" fill="#006E3C"/>
<path d="M16.8545 15.7125V8.61969C16.8545 8.61969 14.5559 9.76241 14.5559 12.1924C14.5559 14.6223 16.8545 15.7125 16.8545 15.7125Z" fill="#006E3C"/>
<path d="M16.8545 8.61969C16.8545 8.61969 19.1526 9.76241 19.1526 12.1924C19.1526 14.6223 16.8545 15.7125 16.8545 15.7125V8.61969Z" fill="#00B43C"/>
<path d="M25.3567 17.2478C25.3567 17.2478 25.4224 18.5613 24.3453 19.1655C23.2683 19.7828 22.2043 19.0341 22.2043 19.0341L25.3567 17.2478Z" fill="#00B43C"/>
<path d="M25.5102 16.9589C25.4577 16.9327 24.131 16.2234 23.0014 16.8801C22.0951 17.4055 21.9244 18.4432 21.885 18.8766L21.4646 19.1131C21.2545 18.916 20.9787 18.7847 20.6634 18.7847C20.3482 18.7847 20.0724 18.9029 19.8622 19.1131L17.9708 18.0097C17.9971 17.9178 18.0102 17.8258 18.0102 17.7339C18.0102 17.2085 17.6556 16.7619 17.1827 16.6306V15.9476C17.7344 15.5929 19.4944 14.2926 19.4944 12.2304C19.4944 9.83984 17.1301 8.3556 17.0251 8.28992L16.8543 8.18486L16.6836 8.28992C16.5785 8.3556 14.2142 9.83984 14.2142 12.2304C14.2142 14.2926 15.9743 15.5798 16.526 15.9476V16.6306C16.04 16.7619 15.6985 17.2085 15.6985 17.7339C15.6985 17.8258 15.7116 17.9178 15.7379 18.0097L13.8333 19.1131C13.6232 18.916 13.3473 18.7847 13.0321 18.7847C12.4016 18.7847 11.8762 19.2969 11.8762 19.9406C11.8762 20.4659 12.2309 20.9125 12.7037 21.0439V23.3294C12.2309 23.4738 11.8762 23.9073 11.8762 24.4327C11.8762 25.0631 12.3885 25.5886 13.0321 25.5886C13.3736 25.5886 13.6757 25.4441 13.8858 25.2076L15.7379 26.2716C15.7116 26.3635 15.6985 26.4555 15.6985 26.5474C15.6985 27.1779 16.2107 27.6901 16.8543 27.6901C17.4848 27.6901 18.0102 27.1779 18.0102 26.5474C18.0102 26.4555 17.9971 26.3635 17.9708 26.2716L19.8228 25.2076C20.033 25.4441 20.3351 25.5886 20.6766 25.5886C21.307 25.5886 21.8324 25.0763 21.8324 24.4327C21.8324 23.9073 21.4778 23.4607 21.0049 23.3294V21.0439C21.4778 20.8994 21.8324 20.4659 21.8324 19.9406C21.8324 19.8486 21.8193 19.7567 21.8062 19.6779L22.2265 19.4414C22.4629 19.5596 22.9489 19.7435 23.4874 19.7435C23.8158 19.7435 24.1704 19.6779 24.512 19.4808C25.6284 18.8372 25.6941 17.3267 25.6941 17.2742V17.0771L25.5102 16.9589ZM20.9918 20.3346C20.8999 20.4003 20.7948 20.4397 20.6766 20.4397C20.6109 20.4397 20.5584 20.4265 20.4927 20.4003C20.4401 20.3871 20.4007 20.3609 20.3613 20.3215C20.2563 20.2427 20.1906 20.1245 20.1643 19.9931C20.1643 19.9668 20.1643 19.9406 20.1643 19.9143C20.1643 19.888 20.1643 19.8749 20.1643 19.8486C20.1906 19.6647 20.3088 19.5071 20.4795 19.4414C20.5321 19.4151 20.5978 19.402 20.6634 19.402C20.7291 19.402 20.8079 19.4151 20.8605 19.4414C21.0444 19.5202 21.1757 19.7041 21.1757 19.9143C21.1757 19.9406 21.1757 19.9668 21.1626 19.9931C21.1494 20.1507 21.0838 20.2558 20.9918 20.3346ZM21.1757 24.4327C21.1757 24.7216 20.9393 24.9449 20.6634 24.9449C20.5715 24.9449 20.4664 24.9187 20.4007 24.8661C20.2563 24.7742 20.1512 24.6166 20.1512 24.4327V24.4196C20.1512 24.367 20.1643 24.3145 20.1774 24.2619C20.2037 24.17 20.2694 24.0912 20.3482 24.0255C20.4139 23.973 20.4927 23.9335 20.5715 23.9204C20.5978 23.9204 20.624 23.9073 20.6634 23.9073C20.7817 23.9073 20.8999 23.9467 20.9787 24.0124C21.11 24.1174 21.1757 24.2619 21.1757 24.4327ZM20.3482 23.3294C20.1906 23.3688 20.0461 23.4476 19.9279 23.5526L17.9839 22.423C17.9971 22.3442 18.0102 22.2786 18.0102 22.1998C18.0102 22.0947 17.9971 21.9765 17.9577 21.8845L19.8754 20.768C20.0067 20.8994 20.1643 20.9913 20.3482 21.0439V23.3294ZM16.8543 27.0596C16.5916 27.0596 16.3815 26.8758 16.3421 26.6262C16.3421 26.5999 16.3421 26.5737 16.3421 26.5474C16.3421 26.3372 16.4734 26.1533 16.6573 26.0745C16.723 26.0483 16.7887 26.0351 16.8543 26.0351C16.92 26.0351 16.9857 26.0483 17.0513 26.0745C17.2352 26.1533 17.3666 26.3372 17.3666 26.5474C17.3666 26.5737 17.3666 26.5999 17.3666 26.6262C17.3272 26.8626 17.1039 27.0596 16.8543 27.0596ZM15.7247 22.423L13.7808 23.5526C13.6626 23.4476 13.5181 23.3688 13.3605 23.3294V21.0439C13.5444 20.9913 13.702 20.8994 13.8333 20.768L15.751 21.8714C15.7247 21.9765 15.6985 22.0815 15.6985 22.1998C15.6985 22.2786 15.7116 22.3574 15.7247 22.423ZM13.5575 24.4327C13.5575 24.6166 13.4655 24.7742 13.3079 24.8661C13.2291 24.9187 13.1372 24.9449 13.0452 24.9449C12.7562 24.9449 12.533 24.7085 12.533 24.4327C12.533 24.2751 12.6118 24.1174 12.73 24.0255C12.8219 23.9598 12.927 23.9204 13.0452 23.9204C13.0715 23.9204 13.1109 23.9204 13.1372 23.9335C13.2291 23.9467 13.2948 23.9861 13.3605 24.0386C13.4393 24.0912 13.4918 24.1831 13.5312 24.2751C13.5444 24.3276 13.5575 24.3801 13.5575 24.4327C13.5575 24.4196 13.5575 24.4196 13.5575 24.4327ZM12.5198 19.9406C12.5198 19.6516 12.7562 19.4283 13.0321 19.4283C13.0978 19.4283 13.1634 19.4414 13.216 19.4677C13.3867 19.5334 13.5049 19.691 13.5312 19.8749C13.5312 19.9012 13.5312 19.9274 13.5312 19.9537C13.5312 19.98 13.5312 20.0062 13.5312 20.0325C13.5181 20.1639 13.4393 20.2821 13.3342 20.3609C13.2948 20.3871 13.2554 20.4134 13.2028 20.4397C13.1503 20.4659 13.0846 20.4791 13.0189 20.4791C12.9007 20.4791 12.7825 20.4397 12.7037 20.374C12.5986 20.2427 12.5198 20.0982 12.5198 19.9406ZM16.5391 17.3267C16.631 17.261 16.7361 17.2216 16.8543 17.2216C16.9725 17.2216 17.0907 17.261 17.1696 17.3267C17.2746 17.4055 17.3403 17.5237 17.3534 17.6551C17.3534 17.6814 17.3534 17.7076 17.3534 17.7339C17.3534 17.8915 17.2746 18.0491 17.1564 18.1411C17.117 18.1673 17.0776 18.1936 17.0251 18.2199C16.9725 18.2461 16.9069 18.2593 16.8412 18.2593C16.7755 18.2593 16.7099 18.2461 16.6573 18.2199C16.6048 18.2067 16.5654 18.1805 16.526 18.1411C16.4077 18.0491 16.3289 17.9047 16.3289 17.7339C16.3289 17.7076 16.3289 17.6814 16.3289 17.6551C16.3683 17.5237 16.434 17.4055 16.5391 17.3267ZM17.3666 22.2129C17.3666 22.3705 17.2878 22.5019 17.1696 22.5938C17.1433 22.6069 17.117 22.6332 17.0907 22.6463C17.0119 22.6857 16.9331 22.712 16.8412 22.712C16.7493 22.712 16.6704 22.6857 16.6048 22.6463C16.5785 22.6332 16.5522 22.6201 16.526 22.5938C16.4077 22.5019 16.3289 22.3574 16.3289 22.1998V22.1866C16.3289 22.1341 16.3289 22.0947 16.3421 22.0553C16.3683 21.9502 16.434 21.8582 16.5128 21.7794C16.5654 21.74 16.631 21.7006 16.7099 21.6875C16.7493 21.6743 16.7887 21.6743 16.8412 21.6743C16.8937 21.6743 16.9331 21.6743 16.9725 21.6875C17.0382 21.7006 17.1039 21.74 17.1564 21.7794C17.2352 21.8451 17.3009 21.9371 17.3272 22.0421C17.3403 22.0815 17.3403 22.1341 17.3403 22.1866C17.3666 22.1998 17.3666 22.2129 17.3666 22.2129ZM19.547 19.6647C19.5207 19.7567 19.5076 19.8486 19.5076 19.9406C19.5076 20.0325 19.5207 20.1376 19.547 20.2295L17.6162 21.346C17.4848 21.2278 17.3403 21.149 17.1696 21.0964V18.8372C17.3534 18.7847 17.5111 18.6927 17.6424 18.5614L19.547 19.6647ZM14.8578 12.2435C14.8578 10.5491 16.3421 9.32759 16.8543 8.9598C17.3666 9.32759 18.8508 10.5491 18.8508 12.2435C18.8508 13.6621 17.8 14.6866 17.1696 15.1726V12.4931C17.1696 12.3223 17.0251 12.1779 16.8543 12.1779C16.6704 12.1779 16.5391 12.3223 16.5391 12.4931V15.1726C15.8955 14.6866 14.8578 13.6621 14.8578 12.2435ZM16.0531 18.5614C16.1844 18.6927 16.3552 18.7847 16.526 18.8372V21.0964C16.3552 21.149 16.2107 21.2278 16.0794 21.3329L14.1354 20.2164C14.1617 20.1245 14.1748 20.0325 14.1748 19.9406C14.1748 19.8486 14.1617 19.7567 14.1354 19.6647L16.0531 18.5614ZM14.1748 24.6297C14.188 24.564 14.1879 24.4984 14.1879 24.4327C14.1879 24.3145 14.1748 24.1963 14.1354 24.078L16.0268 22.9878C16.1582 23.1323 16.3421 23.2374 16.5391 23.3031V25.4441C16.3552 25.4966 16.1976 25.5886 16.0531 25.7199L14.1748 24.6297ZM17.6556 25.7199C17.5242 25.5886 17.3534 25.4966 17.1696 25.4441V23.3031C17.3666 23.2505 17.5505 23.1323 17.6818 22.9878L19.5732 24.078C19.5338 24.1831 19.5207 24.3013 19.5207 24.4327C19.5207 24.4984 19.5207 24.564 19.5338 24.6297L17.6556 25.7199ZM24.1704 18.916C23.7501 19.1525 23.2773 19.1131 22.9095 19.0211L23.54 18.6533C23.6976 18.5614 23.7501 18.3775 23.6582 18.2199C23.5662 18.0623 23.3824 18.0097 23.2247 18.1017L22.5942 18.4694C22.6862 18.1148 22.8964 17.6814 23.3167 17.4318C23.9209 17.0771 24.6696 17.3004 25.0111 17.4449C24.9585 17.7996 24.7878 18.5614 24.1704 18.916Z" fill="#000D35"/>
<path d="M8.445 58V51.7H10.902C11.454 51.7 11.925 51.787 12.315 51.961C12.705 52.135 13.005 52.387 13.215 52.717C13.425 53.047 13.53 53.44 13.53 53.896C13.53 54.352 13.425 54.745 13.215 55.075C13.005 55.399 12.705 55.648 12.315 55.822C11.925 55.996 11.454 56.083 10.902 56.083H8.94L9.345 55.669V58H8.445ZM12.657 58L11.055 55.714H12.018L13.638 58H12.657ZM9.345 55.759L8.94 55.318H10.875C11.451 55.318 11.886 55.195 12.18 54.949C12.48 54.697 12.63 54.346 12.63 53.896C12.63 53.446 12.48 53.098 12.18 52.852C11.886 52.606 11.451 52.483 10.875 52.483H8.94L9.345 52.033V55.759ZM17.3201 58.072C16.8401 58.072 16.3811 58 15.9431 57.856C15.5051 57.706 15.1601 57.514 14.9081 57.28L15.2411 56.578C15.4811 56.788 15.7871 56.962 16.1591 57.1C16.5311 57.238 16.9181 57.307 17.3201 57.307C17.6861 57.307 17.9831 57.265 18.2111 57.181C18.4391 57.097 18.6071 56.983 18.7151 56.839C18.8231 56.689 18.8771 56.521 18.8771 56.335C18.8771 56.119 18.8051 55.945 18.6611 55.813C18.5231 55.681 18.3401 55.576 18.1121 55.498C17.8901 55.414 17.6441 55.342 17.3741 55.282C17.1041 55.222 16.8311 55.153 16.5551 55.075C16.2851 54.991 16.0361 54.886 15.8081 54.76C15.5861 54.634 15.4061 54.466 15.2681 54.256C15.1301 54.04 15.0611 53.764 15.0611 53.428C15.0611 53.104 15.1451 52.807 15.3131 52.537C15.4871 52.261 15.7511 52.042 16.1051 51.88C16.4651 51.712 16.9211 51.628 17.4731 51.628C17.8391 51.628 18.2021 51.676 18.5621 51.772C18.9221 51.868 19.2341 52.006 19.4981 52.186L19.2011 52.906C18.9311 52.726 18.6461 52.597 18.3461 52.519C18.0461 52.435 17.7551 52.393 17.4731 52.393C17.1191 52.393 16.8281 52.438 16.6001 52.528C16.3721 52.618 16.2041 52.738 16.0961 52.888C15.9941 53.038 15.9431 53.206 15.9431 53.392C15.9431 53.614 16.0121 53.791 16.1501 53.923C16.2941 54.055 16.4771 54.16 16.6991 54.238C16.9271 54.316 17.1761 54.388 17.4461 54.454C17.7161 54.514 17.9861 54.583 18.2561 54.661C18.5321 54.739 18.7811 54.841 19.0031 54.967C19.2311 55.093 19.4141 55.261 19.5521 55.471C19.6901 55.681 19.7591 55.951 19.7591 56.281C19.7591 56.599 19.6721 56.896 19.4981 57.172C19.3241 57.442 19.0541 57.661 18.6881 57.829C18.3281 57.991 17.8721 58.072 17.3201 58.072ZM22.3659 56.479L22.3209 55.381L25.8939 51.7H26.9199L24.1569 54.616L23.6529 55.174L22.3659 56.479ZM21.5739 58V51.7H22.4739V58H21.5739ZM26.0379 58L23.4549 54.994L24.0579 54.328L27.0909 58H26.0379Z" fill="white"/>
</svg>
