<svg width="36" height="35" viewBox="0 0 36 35" fill="none" xmlns="http://www.w3.org/2000/svg">
<path d="M18 35C27.665 35 35.5 27.165 35.5 17.5C35.5 7.83502 27.665 0 18 0C8.33502 0 0.5 7.83502 0.5 17.5C0.5 27.165 8.33502 35 18 35Z" fill="white"/>
<path d="M26.1447 21.0904L23.4362 23.9406C23.3773 24.0026 23.306 24.0519 23.2269 24.0857C23.1477 24.1194 23.0623 24.1368 22.976 24.1367H10.1361C10.0748 24.1367 10.0149 24.1192 9.96367 24.0862C9.91244 24.0532 9.87214 24.0063 9.84772 23.9512C9.82329 23.8961 9.81582 23.8351 9.82621 23.7759C9.8366 23.7166 9.8644 23.6617 9.9062 23.6177L12.6168 20.7675C12.6755 20.7058 12.7465 20.6565 12.8254 20.6228C12.9044 20.589 12.9895 20.5716 13.0756 20.5714H25.9148C25.976 20.5714 26.036 20.589 26.0872 20.6219C26.1384 20.6549 26.1787 20.7018 26.2032 20.757C26.2276 20.8121 26.2351 20.873 26.2247 20.9323C26.2143 20.9915 26.1865 21.0465 26.1447 21.0904ZM23.4362 15.3509C23.3773 15.289 23.306 15.2397 23.2269 15.2059C23.1477 15.1722 23.0623 15.1548 22.976 15.1549H10.1361C10.0748 15.1549 10.0149 15.1724 9.96367 15.2054C9.91244 15.2383 9.87214 15.2853 9.84772 15.3404C9.82329 15.3955 9.81582 15.4565 9.82621 15.5157C9.8366 15.5749 9.8644 15.6299 9.9062 15.6739L12.6168 18.5241C12.6755 18.5858 12.7465 18.6351 12.8254 18.6688C12.9044 18.7026 12.9895 18.72 13.0756 18.7202H25.9148C25.976 18.7202 26.036 18.7026 26.0872 18.6696C26.1384 18.6367 26.1787 18.5898 26.2032 18.5346C26.2276 18.4795 26.2351 18.4186 26.2247 18.3593C26.2143 18.3001 26.1865 18.2451 26.1447 18.2011L23.4362 15.3509ZM10.1361 13.3036H22.976C23.0623 13.3037 23.1477 13.2863 23.2269 13.2525C23.306 13.2188 23.3773 13.1694 23.4362 13.1075L26.1447 10.2573C26.1865 10.2134 26.2143 10.1584 26.2247 10.0991C26.2351 10.0399 26.2276 9.97897 26.2032 9.92384C26.1787 9.86871 26.1384 9.82178 26.0872 9.78881C26.036 9.75585 25.976 9.73828 25.9148 9.73828H13.0756C12.9895 9.73842 12.9044 9.7559 12.8254 9.78963C12.7465 9.82336 12.6755 9.87263 12.6168 9.93438L9.9069 12.7846C9.86514 12.8285 9.83735 12.8834 9.82694 12.9426C9.81652 13.0018 9.82394 13.0626 9.84827 13.1177C9.87261 13.1729 9.9128 13.2198 9.96393 13.2528C10.0151 13.2858 10.0749 13.3035 10.1361 13.3036Z" fill="url(#paint0_linear_38_1856)"/>
<defs>
<linearGradient id="paint0_linear_38_1856" x1="11.2066" y1="24.4799" x2="24.386" y2="9.33818" gradientUnits="userSpaceOnUse">
<stop offset="0.08" stop-color="#9945FF"/>
<stop offset="0.3" stop-color="#8752F3"/>
<stop offset="0.5" stop-color="#5497D5"/>
<stop offset="0.6" stop-color="#43B4CA"/>
<stop offset="0.72" stop-color="#28E0B9"/>
<stop offset="0.97" stop-color="#19FB9B"/>
</linearGradient>
</defs>
</svg>
